<mxfile host="app.diagrams.net" modified="2023-04-20T13:25:34.154Z" agent="Mozilla/5.0 (Windows NT 10.0; Win64; x64) AppleWebKit/537.36 (KHTML, like Gecko) Chrome/112.0.0.0 Safari/537.36" etag="0ap4IQ_3x8-H1P3c8_Sh" version="21.2.0" type="device">
  <diagram name="Page-1" id="-J01I2TNTtesCRrVG5lz">
    <mxGraphModel dx="1050" dy="573" grid="1" gridSize="11" guides="1" tooltips="1" connect="1" arrows="1" fold="1" page="1" pageScale="1" pageWidth="850" pageHeight="1100" math="0" shadow="0">
      <root>
        <mxCell id="0" />
        <mxCell id="1" parent="0" />
        <mxCell id="g6W8lDSJsDP0q77BEilk-3" value="" style="edgeStyle=orthogonalEdgeStyle;rounded=0;orthogonalLoop=1;jettySize=auto;html=1;" edge="1" parent="1" source="g6W8lDSJsDP0q77BEilk-1" target="g6W8lDSJsDP0q77BEilk-2">
          <mxGeometry relative="1" as="geometry" />
        </mxCell>
        <mxCell id="g6W8lDSJsDP0q77BEilk-1" value="&lt;font style=&quot;font-size: 26px;&quot;&gt;شروع&lt;/font&gt;" style="ellipse;whiteSpace=wrap;html=1;fillColor=#d5e8d4;strokeColor=#82b366;" vertex="1" parent="1">
          <mxGeometry x="319" width="120" height="80" as="geometry" />
        </mxCell>
        <mxCell id="g6W8lDSJsDP0q77BEilk-5" value="" style="edgeStyle=orthogonalEdgeStyle;rounded=0;orthogonalLoop=1;jettySize=auto;html=1;" edge="1" parent="1" source="g6W8lDSJsDP0q77BEilk-2" target="g6W8lDSJsDP0q77BEilk-4">
          <mxGeometry relative="1" as="geometry" />
        </mxCell>
        <mxCell id="g6W8lDSJsDP0q77BEilk-2" value="&lt;font style=&quot;font-size: 21px;&quot;&gt;i = 0&lt;br&gt;total = 0&lt;/font&gt;" style="rounded=0;whiteSpace=wrap;html=1;fillColor=#dae8fc;strokeColor=#6c8ebf;" vertex="1" parent="1">
          <mxGeometry x="319" y="110" width="120" height="60" as="geometry" />
        </mxCell>
        <mxCell id="g6W8lDSJsDP0q77BEilk-7" value="" style="edgeStyle=orthogonalEdgeStyle;rounded=0;orthogonalLoop=1;jettySize=auto;html=1;" edge="1" parent="1" source="g6W8lDSJsDP0q77BEilk-4" target="g6W8lDSJsDP0q77BEilk-6">
          <mxGeometry relative="1" as="geometry" />
        </mxCell>
        <mxCell id="g6W8lDSJsDP0q77BEilk-4" value="&lt;div style=&quot;direction: rtl;&quot;&gt;&lt;span style=&quot;background-color: initial;&quot;&gt;&lt;font style=&quot;font-size: 23px;&quot;&gt;nرا بگیر&lt;/font&gt;&lt;/span&gt;&lt;/div&gt;" style="shape=parallelogram;perimeter=parallelogramPerimeter;whiteSpace=wrap;html=1;fixedSize=1;fillColor=#fff2cc;strokeColor=#d6b656;" vertex="1" parent="1">
          <mxGeometry x="319" y="198" width="120" height="60" as="geometry" />
        </mxCell>
        <mxCell id="g6W8lDSJsDP0q77BEilk-9" value="" style="edgeStyle=orthogonalEdgeStyle;rounded=0;orthogonalLoop=1;jettySize=auto;html=1;" edge="1" parent="1" source="g6W8lDSJsDP0q77BEilk-6" target="g6W8lDSJsDP0q77BEilk-8">
          <mxGeometry relative="1" as="geometry" />
        </mxCell>
        <mxCell id="g6W8lDSJsDP0q77BEilk-6" value="&lt;font style=&quot;font-size: 19px;&quot;&gt;total = total + n&lt;br&gt;i = i +1&lt;br&gt;&lt;/font&gt;" style="rounded=0;whiteSpace=wrap;html=1;" vertex="1" parent="1">
          <mxGeometry x="307.5" y="286" width="143" height="60" as="geometry" />
        </mxCell>
        <mxCell id="g6W8lDSJsDP0q77BEilk-10" style="edgeStyle=orthogonalEdgeStyle;rounded=0;orthogonalLoop=1;jettySize=auto;html=1;exitX=1;exitY=0.5;exitDx=0;exitDy=0;entryX=1;entryY=0.5;entryDx=0;entryDy=0;" edge="1" parent="1" source="g6W8lDSJsDP0q77BEilk-8" target="g6W8lDSJsDP0q77BEilk-4">
          <mxGeometry relative="1" as="geometry">
            <Array as="points">
              <mxPoint x="539" y="414" />
              <mxPoint x="539" y="228" />
            </Array>
          </mxGeometry>
        </mxCell>
        <mxCell id="g6W8lDSJsDP0q77BEilk-13" value="" style="edgeStyle=orthogonalEdgeStyle;rounded=0;orthogonalLoop=1;jettySize=auto;html=1;" edge="1" parent="1" source="g6W8lDSJsDP0q77BEilk-8" target="g6W8lDSJsDP0q77BEilk-12">
          <mxGeometry relative="1" as="geometry" />
        </mxCell>
        <mxCell id="g6W8lDSJsDP0q77BEilk-8" value="&lt;font style=&quot;font-size: 21px;&quot;&gt;i &amp;lt; 5&lt;/font&gt;" style="rhombus;whiteSpace=wrap;html=1;fillColor=#e1d5e7;strokeColor=#9673a6;" vertex="1" parent="1">
          <mxGeometry x="339" y="374" width="80" height="80" as="geometry" />
        </mxCell>
        <mxCell id="g6W8lDSJsDP0q77BEilk-11" value="&lt;font style=&quot;font-size: 24px;&quot;&gt;بله&lt;/font&gt;" style="text;html=1;strokeColor=none;fillColor=none;align=center;verticalAlign=middle;whiteSpace=wrap;rounded=0;" vertex="1" parent="1">
          <mxGeometry x="451" y="385" width="60" height="30" as="geometry" />
        </mxCell>
        <mxCell id="g6W8lDSJsDP0q77BEilk-15" value="" style="edgeStyle=orthogonalEdgeStyle;rounded=0;orthogonalLoop=1;jettySize=auto;html=1;" edge="1" parent="1" source="g6W8lDSJsDP0q77BEilk-12" target="g6W8lDSJsDP0q77BEilk-14">
          <mxGeometry relative="1" as="geometry" />
        </mxCell>
        <mxCell id="g6W8lDSJsDP0q77BEilk-12" value="&lt;div style=&quot;direction: rtl;&quot;&gt;&lt;span style=&quot;background-color: initial;&quot;&gt;&lt;font style=&quot;font-size: 19px;&quot;&gt;total را نمایش بده&lt;/font&gt;&lt;/span&gt;&lt;/div&gt;" style="shape=document;whiteSpace=wrap;html=1;boundedLbl=1;fillColor=#dae8fc;strokeColor=#6c8ebf;" vertex="1" parent="1">
          <mxGeometry x="319" y="484" width="120" height="80" as="geometry" />
        </mxCell>
        <mxCell id="g6W8lDSJsDP0q77BEilk-14" value="&lt;font style=&quot;font-size: 26px;&quot;&gt;شروع&lt;/font&gt;" style="ellipse;whiteSpace=wrap;html=1;fillColor=#d5e8d4;strokeColor=#82b366;" vertex="1" parent="1">
          <mxGeometry x="319" y="605" width="120" height="80" as="geometry" />
        </mxCell>
        <mxCell id="g6W8lDSJsDP0q77BEilk-16" value="&lt;font style=&quot;font-size: 24px;&quot;&gt;خیر&lt;/font&gt;" style="text;html=1;strokeColor=none;fillColor=none;align=center;verticalAlign=middle;whiteSpace=wrap;rounded=0;" vertex="1" parent="1">
          <mxGeometry x="307.5" y="454" width="60" height="30" as="geometry" />
        </mxCell>
      </root>
    </mxGraphModel>
  </diagram>
</mxfile>
